<?xml version="1.0" encoding="UTF-8" standalone="no"?>
<svg
   xmlns:dc="http://purl.org/dc/elements/1.1/"
   xmlns:cc="http://creativecommons.org/ns#"
   xmlns:rdf="http://www.w3.org/1999/02/22-rdf-syntax-ns#"
   xmlns:svg="http://www.w3.org/2000/svg"
   xmlns="http://www.w3.org/2000/svg"
   xmlns:sodipodi="http://sodipodi.sourceforge.net/DTD/sodipodi-0.dtd"
   xmlns:inkscape="http://www.inkscape.org/namespaces/inkscape"
   sodipodi:docname="uniandes.svg"
   inkscape:version="1.0 (4035a4fb49, 2020-05-01)"
   id="svg8"
   version="1.1"
   viewBox="0 0 77.477318 30.991177"
   height="30.991177mm"
   width="77.477318mm">
  <defs
     id="defs2" />
  <sodipodi:namedview
     inkscape:window-maximized="1"
     inkscape:window-y="-8"
     inkscape:window-x="-8"
     inkscape:window-height="1377"
     inkscape:window-width="3440"
     fit-margin-bottom="0"
     fit-margin-right="0"
     fit-margin-left="0"
     fit-margin-top="0"
     showgrid="false"
     inkscape:document-rotation="0"
     inkscape:current-layer="layer1"
     inkscape:document-units="mm"
     inkscape:cy="278.74371"
     inkscape:cx="184.05145"
     inkscape:zoom="1.4"
     inkscape:pageshadow="2"
     inkscape:pageopacity="0.0"
     borderopacity="1.0"
     bordercolor="#666666"
     pagecolor="#ffffff"
     id="base" />
  <metadata
     id="metadata5">
    <rdf:RDF>
      <cc:Work
         rdf:about="">
        <dc:format>image/svg+xml</dc:format>
        <dc:type
           rdf:resource="http://purl.org/dc/dcmitype/StillImage" />
        <dc:title></dc:title>
      </cc:Work>
    </rdf:RDF>
  </metadata>
  <g
     transform="translate(-65.582769,-19.582453)"
     id="layer1"
     inkscape:groupmode="layer"
     inkscape:label="Capa 1">
    <path
       d="M 143.06009,50.57363 H 65.582769 V 19.582453 H 143.06009 V 50.57363"
       style="fill:#ffffff;fill-opacity:1;fill-rule:nonzero;stroke:none;stroke-width:0.0352778"
       id="path845" />
    <path
       d="m 71.320924,26.095789 c 0,0 4.517884,-0.942975 8.314126,-0.942975 3.795783,0 8.516938,0.942975 8.516938,0.942975 0,0 0,12.627682 0,14.521746 0,1.183216 -0.724817,1.819275 -0.982945,2.005542 -0.578097,0.416983 -3.166992,2.38125 -7.426255,2.38125 -4.008296,0 -6.453329,-1.72967 -7.424455,-2.410178 -0.43614,-0.306917 -0.997409,-0.977548 -0.997409,-1.976614 0,-1.535995 0,-14.521746 0,-14.521746"
       style="fill:#fff200;fill-opacity:1;fill-rule:evenodd;stroke:none;stroke-width:0.0352778"
       id="path847" />
    <path
       d="m 86.894123,42.893657 c -3.432951,2.226381 -6.997665,2.105378 -6.997665,2.105378 0,0 -0.09811,-0.454731 -0.05884,-1.238956 0.03884,-0.784225 0.467148,-0.563386 0.776781,-1.183216 0.112325,-0.22472 0.209198,-0.380295 0.384916,-0.907345 0.0072,-0.02187 -0.20574,-3.778956 -0.259503,-5.373511 -0.02893,-0.859014 -0.19043,-2.292703 -0.37966,-3.686881 -0.111618,-0.825853 -0.36269,-1.480256 -0.47886,-2.264481 -0.168099,-1.132769 -0.363114,-2.410531 -0.363114,-2.410531 -0.139453,0.360892 -0.33969,1.710267 -0.540456,3.233562 -0.09645,0.730603 -0.193357,1.501422 -0.283598,2.221794 -0.191135,1.525764 -0.667667,5.610931 -0.739599,5.832476 -0.108867,0.336197 -0.120579,-0.0889 -0.120579,-0.0889 0,0 0.282504,-4.284839 0.367524,-6.163734 0.04135,-0.918986 0.110948,-1.928283 0.225319,-2.896659 0.08611,-0.727427 0.197732,-1.431572 0.341736,-2.0574 0,0 0.490573,-1.482019 0.646994,-1.5113 0.156422,-0.02963 0.722525,0.933803 0.913624,1.791406 0.433141,1.935692 0.688764,2.183342 1.018399,4.217459 0.313902,1.932516 0.600111,3.548944 0.638704,3.813528 0.140582,0.95885 0.07098,3.950405 -0.170885,5.141736 -0.05719,0.325261 -0.07468,0.444853 -0.286879,0.659694 -0.497487,0.503414 -0.851359,1.103137 -0.851359,1.495426 0,0.392641 -0.06548,0.38488 0.02755,0.612422 0,0 0.656343,0.982133 4.427644,-1.265767 0,0 1.17863,-0.617361 1.17863,-1.980142 V 27.206334 c 0,0 -3.739726,-1.264356 -6.619804,-1.264356 -2.880396,0 -6.487126,1.261534 -6.487126,1.261534 v 13.724114 c 0,0.84455 0.123049,2.428523 1.329126,2.969331 0,0 -3.212218,-1.099608 -3.212218,-2.986264 V 26.037934 c 0,0 4.903752,-0.902406 8.372264,-0.902406 3.468511,0 8.4588,0.902406 8.4588,0.902406 0,0 0,13.608051 0,14.890398 0,1.2827 -1.257865,1.965325 -1.257865,1.965325"
       style="fill:#231f20;fill-opacity:1;fill-rule:nonzero;stroke:none;stroke-width:0.0352778"
       id="path849" />
    <path
       d="m 133.4924,31.374404 c -0.34255,0.190852 -0.80327,0.286455 -1.38218,0.286455 -0.5835,0 -1.03717,-0.176389 -1.36031,-0.529872 -0.32385,-0.353131 -0.48507,-0.845961 -0.48507,-1.478492 0,-0.637822 0.16122,-1.145117 0.48507,-1.522942 0.31432,-0.363008 0.73131,-0.544689 1.2513,-0.544689 0.23036,0 0.42933,0.0254 0.59619,0.07585 v -1.600906 h 0.895 z m -0.895,-0.376767 V 28.14437 c -0.11782,-0.03387 -0.25011,-0.05151 -0.39758,-0.05151 -0.69603,0 -1.04457,0.502709 -1.04457,1.50742 0,0.990953 0.32597,1.4859 0.97825,1.4859 0.2159,0 0.37007,-0.02928 0.4639,-0.08855"
       style="fill:#231f20;fill-opacity:1;fill-rule:nonzero;stroke:none;stroke-width:0.0352778"
       id="path851" />
    <path
       d="m 137.58392,29.579117 -2.42747,0.352425 c 0.0737,0.734837 0.43463,1.102078 1.08162,1.102078 0.38241,0 0.71579,-0.07232 1.00048,-0.216605 l 0.21308,0.564797 c -0.33832,0.185914 -0.7747,0.279047 -1.30916,0.279047 -0.56868,0 -1.01777,-0.178858 -1.34655,-0.536575 -0.32773,-0.357717 -0.49248,-0.86748 -0.49248,-1.528939 0,-0.642408 0.15063,-1.143705 0.45191,-1.503539 0.30162,-0.360186 0.71508,-0.540103 1.23966,-0.540103 0.52987,0 0.93133,0.172509 1.2065,0.517878 0.27481,0.34537 0.40216,0.848431 0.38241,1.509536 z m -0.83785,-0.351719 c 0,-0.749653 -0.2607,-1.125009 -0.7814,-1.125009 -0.27517,0 -0.48578,0.110067 -0.63324,0.331259 -0.16192,0.239889 -0.23848,0.588433 -0.22824,1.043869 l 1.64288,-0.250119"
       style="fill:#231f20;fill-opacity:1;fill-rule:nonzero;stroke:none;stroke-width:0.0352778"
       id="path853" />
    <path
       d="m 92.47147,42.162701 h -1.406984 v -8.698442 h 1.406984 v 8.698442"
       style="fill:#231f20;fill-opacity:1;fill-rule:nonzero;stroke:none;stroke-width:0.0352778"
       id="path855" />
    <path
       d="m 98.961347,39.060374 c 0,0.960966 -0.211526,1.725083 -0.63433,2.293761 -0.461222,0.614539 -1.110686,0.921455 -1.94811,0.921455 -0.837847,0 -1.487346,-0.306916 -1.948286,-0.921455 -0.423051,-0.568678 -0.634188,-1.332795 -0.634188,-2.293761 0,-0.967317 0.211137,-1.73602 0.634188,-2.304698 0.46094,-0.614539 1.110439,-0.921808 1.948286,-0.921808 0.845009,0 1.494755,0.307269 1.94811,0.921808 0.422804,0.568678 0.63433,1.337381 0.63433,2.304698 z M 97.56537,39.04979 c 0,-1.552222 -0.395499,-2.328686 -1.186463,-2.328686 -0.791421,0 -1.186921,0.776464 -1.186921,2.328686 0,1.51377 0.3955,2.270831 1.186921,2.270831 0.790964,0 1.186463,-0.757061 1.186463,-2.270831"
       style="fill:#231f20;fill-opacity:1;fill-rule:nonzero;stroke:none;stroke-width:0.0352778"
       id="path857" />
    <path
       d="m 103.78393,40.374118 c 0,0.522817 -0.20391,0.968375 -0.61137,1.337381 -0.4071,0.3683 -0.94156,0.553155 -1.60302,0.553155 -0.70732,0 -1.2802,-0.149578 -1.718417,-0.449086 l 0.369037,-0.897819 c 0.30001,0.23883 0.68827,0.357716 1.16558,0.357716 0.28434,0 0.51506,-0.08255 0.69215,-0.24765 0.17639,-0.1651 0.26529,-0.37465 0.26529,-0.62865 0,-0.260703 -0.0695,-0.466725 -0.20743,-0.616303 -0.13829,-0.14993 -0.37289,-0.286808 -0.70344,-0.409575 -0.94481,-0.361244 -1.41718,-0.941564 -1.41718,-1.740605 0,-0.507295 0.18231,-0.933803 0.54709,-1.279878 0.36491,-0.346075 0.83904,-0.518936 1.42254,-0.518936 0.62971,0 1.16734,0.14605 1.61255,0.43815 l -0.34467,0.818797 c -0.28398,-0.231422 -0.61383,-0.347133 -0.98989,-0.347133 -0.27623,0 -0.49283,0.07867 -0.64982,0.236361 -0.15734,0.157339 -0.23636,0.351719 -0.23636,0.58173 0,0.407812 0.30727,0.734131 0.92181,0.980017 0.99025,0.399697 1.48555,1.010003 1.48555,1.832328"
       style="fill:#231f20;fill-opacity:1;fill-rule:nonzero;stroke:none;stroke-width:0.0352778"
       id="path859" />
    <path
       d="m 114.16124,42.162701 h -1.64113 l -0.66428,-2.217208 h -2.78094 l -0.68898,2.217208 h -1.4291 l 2.8575,-8.622947 h 1.50283 z m -2.53083,-3.144308 -0.88935,-3.036711 c -0.12559,-0.426156 -0.20073,-0.773642 -0.22613,-1.041048 h -0.0247 c -0.0413,0.225425 -0.12135,0.572559 -0.23777,1.041048 l -0.92745,3.036711 h 2.3054"
       style="fill:#231f20;fill-opacity:1;fill-rule:nonzero;stroke:none;stroke-width:0.0352778"
       id="path861" />
    <path
       d="m 119.94679,42.162701 h -1.40688 v -4.404078 c 0,-0.691797 -0.37218,-1.037519 -1.11689,-1.037519 -0.35348,0 -0.67592,0.0575 -0.96802,0.172861 v 5.268736 h -1.40688 v -5.879042 c 0.63782,-0.299508 1.44815,-0.449791 2.43205,-0.449791 0.86819,0 1.51024,0.191911 1.92511,0.576439 0.36124,0.322791 0.54151,0.764822 0.54151,1.326091 v 4.426303"
       style="fill:#231f20;fill-opacity:1;fill-rule:nonzero;stroke:none;stroke-width:0.0352778"
       id="path863" />
    <path
       d="m 126.28868,41.826151 c -0.53799,0.299509 -1.26153,0.449439 -2.16853,0.449439 -0.91475,0 -1.62595,-0.276225 -2.1336,-0.829733 -0.50729,-0.553156 -0.76094,-1.325739 -0.76094,-2.316339 0,-0.999067 0.25365,-1.794228 0.76094,-2.386189 0.49248,-0.568678 1.14583,-0.85337 1.96074,-0.85337 0.36125,0 0.6724,0.03916 0.93451,0.117123 v -2.514601 h 1.40688 z m -1.40688,-0.587375 v -4.470753 c -0.18485,-0.05398 -0.39299,-0.08079 -0.623,-0.08079 -1.0922,0 -1.63795,0.787753 -1.63795,2.3622 0,1.552223 0.51153,2.327628 1.53388,2.327628 0.33831,0 0.58032,-0.04586 0.72707,-0.138289"
       style="fill:#231f20;fill-opacity:1;fill-rule:nonzero;stroke:none;stroke-width:0.0352778"
       id="path865" />
    <path
       d="m 132.69019,39.015571 -3.80471,0.553508 c 0.115,1.152878 0.68015,1.728964 1.69439,1.728964 0.59937,0 1.12254,-0.115005 1.5681,-0.345369 l 0.33443,0.885825 c -0.53058,0.291747 -1.21426,0.437091 -2.05211,0.437091 -0.89147,0 -1.59491,-0.280458 -2.10961,-0.841022 -0.5147,-0.560917 -0.77258,-1.359958 -0.77258,-2.397125 0,-1.006122 0.23636,-1.791758 0.70908,-2.356203 0.47272,-0.564797 1.12042,-0.847372 1.94239,-0.847372 0.8308,0 1.46086,0.271286 1.89125,0.8128 0.43074,0.541867 0.63041,1.331736 0.59937,2.368903 z m -1.31657,-0.552803 c 0,-1.176514 -0.40711,-1.764595 -1.22238,-1.764595 -0.43003,0 -0.76059,0.173214 -0.9913,0.519289 -0.25365,0.376414 -0.37218,0.922161 -0.35701,1.636889 l 2.57069,-0.391583"
       style="fill:#231f20;fill-opacity:1;fill-rule:nonzero;stroke:none;stroke-width:0.0352778"
       id="path867" />
    <path
       d="m 137.52465,40.374118 c 0,0.522817 -0.20426,0.968375 -0.61136,1.337381 -0.40781,0.3683 -0.94192,0.553155 -1.60338,0.553155 -0.70696,0 -1.28023,-0.149578 -1.71838,-0.449086 l 0.36866,-0.897819 c 0.30056,0.23883 0.68897,0.357716 1.16593,0.357716 0.28433,0 0.5154,-0.08255 0.69179,-0.24765 0.1771,-0.1651 0.26529,-0.37465 0.26529,-0.62865 0,-0.260703 -0.0691,-0.466725 -0.20673,-0.616303 -0.13864,-0.14993 -0.37288,-0.286808 -0.70343,-0.409575 -0.94545,-0.361244 -1.41817,-0.941564 -1.41817,-1.740605 0,-0.507295 0.18274,-0.933803 0.54786,-1.279878 0.36442,-0.346075 0.83926,-0.518936 1.42276,-0.518936 0.6297,0 1.16734,0.14605 1.61219,0.43815 l -0.34502,0.818797 c -0.28398,-0.231422 -0.61383,-0.347133 -0.98954,-0.347133 -0.27622,0 -0.49248,0.07867 -0.65052,0.236361 -0.15699,0.157339 -0.23566,0.351719 -0.23566,0.58173 0,0.407812 0.30727,0.734131 0.92146,0.980017 0.9906,0.399697 1.48625,1.010003 1.48625,1.832328"
       style="fill:#231f20;fill-opacity:1;fill-rule:nonzero;stroke:none;stroke-width:0.0352778"
       id="path869" />
    <path
       d="m 98.486614,31.600887 h -0.895738 v -2.809875 c 0,-0.441678 -0.237702,-0.662517 -0.713529,-0.662517 -0.225319,0 -0.431341,0.03704 -0.617643,0.110772 v 3.36162 h -0.895738 v -3.750381 c 0.406788,-0.190853 0.923572,-0.286808 1.550282,-0.286808 0.553579,0 0.962589,0.122766 1.226749,0.367947 0.230541,0.205669 0.345617,0.487539 0.345617,0.845608 v 2.823634"
       style="fill:#231f20;fill-opacity:1;fill-rule:nonzero;stroke:none;stroke-width:0.0352778"
       id="path871" />
    <path
       d="m 100.41821,26.508539 c 0,0.122767 -0.0478,0.227542 -0.14361,0.313267 -0.0958,0.08608 -0.2122,0.129117 -0.349323,0.129117 -0.137513,0 -0.253965,-0.04304 -0.349744,-0.129117 -0.09536,-0.08573 -0.143334,-0.1905 -0.143334,-0.313267 0,-0.122414 0.04798,-0.227894 0.143334,-0.316089 0.09578,-0.08819 0.212231,-0.132644 0.349744,-0.132644 0.137123,0 0.253543,0.04304 0.349323,0.128764 0.0958,0.08643 0.14361,0.192617 0.14361,0.319969 z m -0.0471,5.092348 h -0.895736 v -3.965223 h 0.895736 v 3.965223"
       style="fill:#231f20;fill-opacity:1;fill-rule:nonzero;stroke:none;stroke-width:0.0352778"
       id="path873" />
    <path
       d="m 104.4542,27.635664 -1.27247,3.965223 h -0.85301 l -1.29505,-3.965223 h 0.95603 l 0.6992,2.559403 c 0.054,0.191206 0.0857,0.372181 0.096,0.543984 h 0.0145 c 0.0243,-0.142522 0.0586,-0.323497 0.10266,-0.543984 l 0.71367,-2.559403 h 0.83855"
       style="fill:#231f20;fill-opacity:1;fill-rule:nonzero;stroke:none;stroke-width:0.0352778"
       id="path875" />
    <path
       d="m 108.21164,29.591112 -2.42746,0.352425 c 0.0737,0.734836 0.43391,1.102078 1.08091,1.102078 0.38241,0 0.71614,-0.07232 1.00047,-0.216606 l 0.21379,0.564797 c -0.33832,0.18662 -0.77506,0.279048 -1.30916,0.279048 -0.56903,0 -1.01776,-0.178859 -1.34655,-0.536575 -0.32844,-0.357717 -0.49319,-0.867128 -0.49319,-1.528939 0,-0.642409 0.15099,-1.143353 0.45262,-1.503187 0.30197,-0.360186 0.71472,-0.540455 1.23966,-0.540455 0.52916,0 0.93133,0.172508 1.20579,0.517878 0.27482,0.345369 0.40217,0.84843 0.38312,1.509536 z m -0.83785,-0.351367 c 0,-0.750005 -0.2607,-1.125361 -0.7814,-1.125361 -0.27481,0 -0.48648,0.110419 -0.63394,0.331258 -0.16193,0.240242 -0.23777,0.588434 -0.2279,1.044223 l 1.64324,-0.25012"
       style="fill:#231f20;fill-opacity:1;fill-rule:nonzero;stroke:none;stroke-width:0.0352778"
       id="path877" />
    <path
       d="m 110.9372,27.568284 -0.17709,0.656167 c -0.1323,-0.0441 -0.26988,-0.06632 -0.41275,-0.06632 -0.17145,0 -0.31398,0.0321 -0.42687,0.09596 v 3.346803 h -0.89605 v -3.75285 c 0.43709,-0.210609 1.07421,-0.304095 1.91276,-0.279753"
       style="fill:#231f20;fill-opacity:1;fill-rule:nonzero;stroke:none;stroke-width:0.0352778"
       id="path879" />
    <path
       d="m 113.79611,30.461415 c 0,0.333375 -0.13017,0.618066 -0.39017,0.853722 -0.26035,0.235655 -0.60078,0.352778 -1.02235,0.352778 -0.45191,0 -0.81703,-0.0956 -1.09679,-0.287161 l 0.23566,-0.57397 c 0.19085,0.152753 0.43885,0.229306 0.7433,0.229306 0.18133,0 0.32879,-0.05292 0.44168,-0.15875 0.11218,-0.104423 0.16863,-0.238831 0.16863,-0.400403 0,-0.166864 -0.0441,-0.298097 -0.13159,-0.3937 -0.0889,-0.09525 -0.23812,-0.182386 -0.44838,-0.261056 -0.6029,-0.230364 -0.90487,-0.60078 -0.90487,-1.110897 0,-0.323497 0.11677,-0.595842 0.3496,-0.816681 0.23283,-0.220486 0.53516,-0.330905 0.90734,-0.330905 0.40182,0 0.74472,0.09313 1.0287,0.279047 l -0.22048,0.521758 c -0.18133,-0.147814 -0.39123,-0.221544 -0.63183,-0.221544 -0.17639,0 -0.31503,0.05045 -0.41557,0.150989 -0.0998,0.100542 -0.15028,0.224719 -0.15028,0.371828 0,0.259997 0.19579,0.468489 0.58843,0.625122 0.63253,0.255764 0.94897,0.64523 0.94897,1.170517"
       style="fill:#231f20;fill-opacity:1;fill-rule:nonzero;stroke:none;stroke-width:0.0352778"
       id="path881" />
    <path
       d="m 115.55048,26.508539 c 0,0.122767 -0.0483,0.227542 -0.14358,0.313267 -0.0956,0.08608 -0.21202,0.129117 -0.34925,0.129117 -0.13794,0 -0.25436,-0.04304 -0.34996,-0.129117 -0.0952,-0.08573 -0.14323,-0.1905 -0.14323,-0.313267 0,-0.122414 0.048,-0.227894 0.14323,-0.316089 0.0956,-0.08819 0.21202,-0.132644 0.34996,-0.132644 0.13723,0 0.25364,0.04304 0.34925,0.128764 0.0953,0.08643 0.14358,0.192617 0.14358,0.319969 z m -0.0469,5.092348 h -0.89571 v -3.965223 h 0.89571 v 3.965223"
       style="fill:#231f20;fill-opacity:1;fill-rule:nonzero;stroke:none;stroke-width:0.0352778"
       id="path883" />
    <path
       d="m 119.57567,31.386398 c -0.34325,0.191206 -0.80363,0.286456 -1.38218,0.286456 -0.58314,0 -1.03717,-0.176742 -1.36031,-0.529873 -0.32385,-0.352777 -0.48507,-0.845608 -0.48507,-1.478491 0,-0.637823 0.16122,-1.14547 0.48507,-1.522942 0.31432,-0.363009 0.73095,-0.544336 1.2513,-0.544336 0.23001,0 0.42933,0.02505 0.59619,0.07514 V 26.0718 h 0.895 z m -0.895,-0.376061 v -2.85362 c -0.11782,-0.03422 -0.25012,-0.05186 -0.39758,-0.05186 -0.69673,0 -1.04457,0.502708 -1.04457,1.507419 0,0.990953 0.32632,1.486253 0.97825,1.486253 0.21555,0 0.37077,-0.02963 0.4639,-0.08819"
       style="fill:#231f20;fill-opacity:1;fill-rule:nonzero;stroke:none;stroke-width:0.0352778"
       id="path885" />
    <path
       d="m 123.39414,31.386398 c -0.35772,0.191206 -0.83503,0.286456 -1.43404,0.286456 -1.07809,0 -1.61714,-0.401814 -1.61714,-1.205089 0,-0.479778 0.21872,-0.840317 0.65476,-1.080206 0.34325,-0.185914 0.86183,-0.313619 1.55857,-0.381706 v -0.21343 c 0,-0.436033 -0.26247,-0.653697 -0.78705,-0.653697 -0.32843,0 -0.65863,0.08008 -0.99201,0.240241 l -0.20602,-0.513997 c 0.41204,-0.200731 0.86466,-0.301272 1.35996,-0.301272 0.97508,0 1.46297,0.456141 1.46297,1.367367 z m -0.83785,-0.321733 v -1.633714 c -0.4699,0.05891 -0.80292,0.149225 -0.99836,0.272344 -0.24483,0.152047 -0.36724,0.397228 -0.36724,0.735895 0,0.490361 0.27693,0.735894 0.82938,0.735894 0.21025,0 0.38876,-0.03669 0.53622,-0.110419"
       style="fill:#231f20;fill-opacity:1;fill-rule:nonzero;stroke:none;stroke-width:0.0352778"
       id="path887" />
    <path
       d="m 127.43238,31.386398 c -0.34325,0.191206 -0.80398,0.286456 -1.38218,0.286456 -0.58349,0 -1.03681,-0.176742 -1.36066,-0.529873 -0.32315,-0.352777 -0.48507,-0.845608 -0.48507,-1.478491 0,-0.637823 0.16192,-1.14547 0.48577,-1.522942 0.31327,-0.363009 0.73025,-0.544336 1.2506,-0.544336 0.23072,0 0.42898,0.02505 0.59584,0.07514 V 26.0718 h 0.8957 z m -0.8957,-0.376061 v -2.85362 c -0.11783,-0.03422 -0.25012,-0.05186 -0.39687,-0.05186 -0.69674,0 -1.04458,0.502708 -1.04458,1.507419 0,0.990953 0.32597,1.486253 0.97861,1.486253 0.21554,0 0.36971,-0.02963 0.46284,-0.08819"
       style="fill:#231f20;fill-opacity:1;fill-rule:nonzero;stroke:none;stroke-width:0.0352778"
       id="path889" />
    <path
       d="m 91.05348,26.080973 h 0.953875 v 4.262967 c 0,0.468489 0.252166,0.703086 0.757203,0.703086 0.239783,0 0.458223,-0.03916 0.655955,-0.117122 v -4.848931 h 0.954017 v 5.263092 c -0.432435,0.202847 -0.981851,0.304447 -1.648813,0.304447 -0.588822,0 -1.023902,-0.130175 -1.304996,-0.390525 -0.245039,-0.219075 -0.367241,-0.518583 -0.367241,-0.898878 v -4.278136"
       style="fill:#231f20;fill-opacity:1;fill-rule:nonzero;stroke:none;stroke-width:0.0352778"
       id="path891" />
  </g>
</svg>
